<?xml version="1.0" encoding="iso-8859-1"?>
<!-- Generator: Adobe Illustrator 24.1.0, SVG Export Plug-In . SVG Version: 6.00 Build 0)  -->
<svg version="1.1" id="Ebene_1" xmlns="http://www.w3.org/2000/svg" xmlns:xlink="http://www.w3.org/1999/xlink" x="0px" y="0px"
	 viewBox="0 0 170.079 56.693" style="enable-background:new 0 0 170.079 56.693;" xml:space="preserve">
<g>
	<path style="fill:#416142;" d="M22.247,3.229c-10.81,0-19.604,8.794-19.604,19.604c0,8.616,5.588,15.945,13.329,18.569v-5.339
		c-4.945-2.354-8.371-7.398-8.371-13.23c0-8.075,6.571-14.646,14.646-14.646c8.076,0,14.646,6.571,14.646,14.646
		c0,5.832-3.426,10.876-8.37,13.23v5.339c7.741-2.624,13.328-9.953,13.328-18.569C41.851,12.024,33.058,3.229,22.247,3.229"/>
	<path style="fill:#416142;" d="M116.086,37.77v0.06h5.52v4.072h-5.52v12.517h-4.313V41.902h-2.957V37.83h2.957v-0.272
		c0-4.735,3.318-6.725,6.756-6.725c1.297,0,2.866,0.27,3.921,0.753l-0.784,3.499l-0.573-0.15c-0.724-0.212-1.447-0.332-2.081-0.332
		C117.051,34.603,116.086,35.628,116.086,37.77"/>
	<path style="fill:#416142;" d="M73.704,4.023v12.578c0,5.942-3.74,8.898-8.717,8.898s-8.717-2.956-8.717-8.898V4.023h4.373v12.336
		c0,3.68,1.81,5.038,4.344,5.038c2.533,0,4.343-1.358,4.343-5.038V4.023H73.704z"/>
	<path style="fill:#416142;" d="M88.034,8.246v4.434c-0.331-0.03-0.572-0.06-1.055-0.06c-2.745,0-5.097,1.206-5.097,5.127v7.39
		h-4.314V8.547h4.314v2.896c1.025-2.171,2.835-3.258,5.187-3.258C87.461,8.185,87.762,8.216,88.034,8.246"/>
	<path style="fill:#416142;" d="M108.123,16.842c0,5.098-3.258,8.657-7.57,8.657c-2.353,0-4.073-1.026-5.248-2.594v2.232h-4.314
		V1.912h4.314v8.958c1.145-1.598,2.924-2.685,5.248-2.685C104.806,8.185,108.123,11.715,108.123,16.842 M103.75,16.842
		c0-2.714-1.78-4.555-4.192-4.555c-2.414,0-4.253,1.841-4.253,4.555c0,2.745,1.839,4.555,4.253,4.555
		C101.94,21.397,103.75,19.587,103.75,16.842"/>
	<path style="fill:#416142;" d="M127.851,8.547l-0.029,16.59h-4.313v-2.232c-1.147,1.568-2.866,2.594-5.189,2.594
		c-4.343,0-7.57-3.559-7.57-8.657c0-5.127,3.288-8.657,7.541-8.657c2.352,0,4.102,1.087,5.248,2.685V8.547H127.851z M123.539,16.842
		c0-2.714-1.84-4.555-4.253-4.555c-2.413,0-4.192,1.841-4.192,4.555c0,2.745,1.809,4.555,4.192,4.555
		C121.699,21.397,123.539,19.587,123.539,16.842"/>
	<path style="fill:#416142;" d="M147.37,14.731v10.406h-4.313v-9.472c0-2.171-0.815-3.378-3.107-3.378
		c-2.443,0-3.74,1.418-3.74,4.133v8.717h-4.314V8.547h4.314v2.262c1.206-1.689,2.865-2.624,5.157-2.624
		C145.107,8.185,147.37,10.659,147.37,14.731"/>
	<path style="fill:#416142;" d="M167.401,17.958h-12.73c0.272,2.655,2.082,3.982,4.314,3.982c1.659,0,3.106-0.754,3.679-2.082h4.465
		c-1.237,3.922-4.555,5.641-8.114,5.641c-5.188,0-8.747-3.68-8.747-8.626c0-4.977,3.589-8.687,8.656-8.687
		C164.414,8.186,167.822,12.499,167.401,17.958 M154.883,14.791h7.933c-0.483-1.81-1.84-3.046-3.921-3.046
		C156.783,11.745,155.426,13.012,154.883,14.791"/>
	<path style="fill:#416142;" d="M74.699,43.862c0,6.033-4.644,10.557-10.797,10.557h-7.631V33.305h7.631
		C70.055,33.305,74.699,37.799,74.699,43.862 M70.386,43.862c0-3.801-2.685-6.455-6.484-6.455h-3.319v12.91h3.319
		C67.701,50.317,70.386,47.663,70.386,43.862"/>
	<path style="fill:#416142;" d="M106.771,37.528v4.434c-0.332-0.031-0.573-0.061-1.056-0.061c-2.745,0-5.097,1.207-5.097,5.128v7.39
		h-4.314v-16.59h4.314v2.896c1.025-2.172,2.835-3.258,5.187-3.258C106.198,37.467,106.5,37.498,106.771,37.528"/>
	<path style="fill:#416142;" d="M140.145,47.24h-12.73c0.272,2.655,2.081,3.981,4.314,3.981c1.659,0,3.106-0.753,3.679-2.081h4.465
		c-1.237,3.922-4.555,5.641-8.114,5.641c-5.188,0-8.747-3.68-8.747-8.626c0-4.978,3.589-8.688,8.656-8.688
		C137.158,37.467,140.566,41.781,140.145,47.24 M127.626,44.073h7.934c-0.483-1.81-1.84-3.046-3.921-3.046
		C129.526,41.027,128.17,42.294,127.626,44.073"/>
	<path style="fill:#416142;" d="M153.538,37.528v4.434c-0.332-0.031-0.573-0.061-1.056-0.061c-2.745,0-5.097,1.207-5.097,5.128v7.39
		h-4.314v-16.59h4.314v2.896c1.025-2.172,2.835-3.258,5.187-3.258C152.965,37.467,153.267,37.498,153.538,37.528"/>
	<path style="fill:#416142;" d="M93.631,46.125c0,5.007-3.8,8.657-8.657,8.657c-4.825,0-8.626-3.68-8.626-8.657
		c0-5.007,3.861-8.657,8.626-8.657C89.77,37.468,93.631,41.118,93.631,46.125 M80.691,46.125c0,2.745,1.87,4.555,4.283,4.555
		s4.283-1.81,4.283-4.555c0-2.715-1.87-4.555-4.283-4.555S80.691,43.41,80.691,46.125"/>
	<rect x="79.455" y="31.371" style="fill:#416142;" width="11.07" height="3.922"/>
	<path style="fill:#416142;" d="M33.152,22.834h-4.628c0-3.46-2.815-6.276-6.276-6.276V11.93
		C28.26,11.93,33.152,16.821,33.152,22.834"/>
	<rect x="19.603" y="25.5" style="fill:#416142;" width="5.289" height="28.92"/>
</g>
</svg>
