<?xml version="1.0" encoding="utf-8"?>
<!-- Generator: Adobe Illustrator 24.0.1, SVG Export Plug-In . SVG Version: 6.00 Build 0)  -->
<svg version="1.1" id="Ebene_1" xmlns="http://www.w3.org/2000/svg" xmlns:xlink="http://www.w3.org/1999/xlink" x="0px" y="0px"
	 viewBox="0 0 170.1 56.7" style="enable-background:new 0 0 170.1 56.7;" xml:space="preserve">
<style type="text/css">
	.st0{fill:#EC5D60;}
</style>
<g>
	<path class="st0" d="M22.2,3.2C11.4,3.2,2.6,12,2.6,22.8c0,8.6,5.6,15.9,13.3,18.6v-5.3c-4.9-2.4-8.4-7.4-8.4-13.2
		c0-8.1,6.6-14.6,14.6-14.6c8.1,0,14.6,6.6,14.6,14.6c0,5.8-3.4,10.9-8.4,13.2v5.3c7.7-2.6,13.3-10,13.3-18.6
		C41.9,12,33.1,3.2,22.2,3.2"/>
	<path d="M116.1,37.8L116.1,37.8l5.5,0.1v4.1h-5.5v12.5h-4.3V41.9h-3v-4.1h3v-0.3c0-4.7,3.3-6.7,6.8-6.7c1.3,0,2.9,0.3,3.9,0.8
		l-0.8,3.5l-0.6-0.2c-0.7-0.2-1.4-0.3-2.1-0.3C117.1,34.6,116.1,35.6,116.1,37.8"/>
	<path d="M73.7,4v12.6c0,5.9-3.7,8.9-8.7,8.9s-8.7-3-8.7-8.9V4h4.4v12.3c0,3.7,1.8,5,4.3,5c2.5,0,4.3-1.4,4.3-5V4H73.7z"/>
	<path d="M88,8.2v4.4c-0.3,0-0.6-0.1-1.1-0.1c-2.7,0-5.1,1.2-5.1,5.1v7.4h-4.3V8.5h4.3v2.9c1-2.2,2.8-3.3,5.2-3.3
		C87.5,8.2,87.8,8.2,88,8.2"/>
	<path d="M108.1,16.8c0,5.1-3.3,8.7-7.6,8.7c-2.4,0-4.1-1-5.2-2.6v2.2H91V1.9h4.3v9c1.1-1.6,2.9-2.7,5.2-2.7
		C104.8,8.2,108.1,11.7,108.1,16.8 M103.8,16.8c0-2.7-1.8-4.6-4.2-4.6c-2.4,0-4.3,1.8-4.3,4.6c0,2.7,1.8,4.6,4.3,4.6
		C101.9,21.4,103.8,19.6,103.8,16.8"/>
	<path d="M127.9,8.5l0,16.6h-4.3v-2.2c-1.1,1.6-2.9,2.6-5.2,2.6c-4.3,0-7.6-3.6-7.6-8.7c0-5.1,3.3-8.7,7.5-8.7
		c2.4,0,4.1,1.1,5.2,2.7V8.5H127.9z M123.5,16.8c0-2.7-1.8-4.6-4.3-4.6s-4.2,1.8-4.2,4.6c0,2.7,1.8,4.6,4.2,4.6
		C121.7,21.4,123.5,19.6,123.5,16.8"/>
	<path d="M147.4,14.7v10.4h-4.3v-9.5c0-2.2-0.8-3.4-3.1-3.4c-2.4,0-3.7,1.4-3.7,4.1v8.7h-4.3V8.5h4.3v2.3c1.2-1.7,2.9-2.6,5.2-2.6
		C145.1,8.2,147.4,10.7,147.4,14.7"/>
	<path d="M167.4,18h-12.7c0.3,2.7,2.1,4,4.3,4c1.7,0,3.1-0.8,3.7-2.1h4.5c-1.2,3.9-4.6,5.6-8.1,5.6c-5.2,0-8.7-3.7-8.7-8.6
		c0-5,3.6-8.7,8.7-8.7C164.4,8.2,167.8,12.5,167.4,18 M154.9,14.8h7.9c-0.5-1.8-1.8-3-3.9-3C156.8,11.7,155.4,13,154.9,14.8"/>
	<path d="M74.7,43.9c0,6-4.6,10.6-10.8,10.6h-7.6V33.3h7.6C70.1,33.3,74.7,37.8,74.7,43.9 M70.4,43.9c0-3.8-2.7-6.5-6.5-6.5h-3.3
		v12.9h3.3C67.7,50.3,70.4,47.7,70.4,43.9"/>
	<path d="M106.8,37.5V42c-0.3,0-0.6-0.1-1.1-0.1c-2.7,0-5.1,1.2-5.1,5.1v7.4h-4.3V37.8h4.3v2.9c1-2.2,2.8-3.3,5.2-3.3
		C106.2,37.5,106.5,37.5,106.8,37.5"/>
	<path d="M140.1,47.2h-12.7c0.3,2.7,2.1,4,4.3,4c1.7,0,3.1-0.8,3.7-2.1h4.5c-1.2,3.9-4.6,5.6-8.1,5.6c-5.2,0-8.7-3.7-8.7-8.6
		c0-5,3.6-8.7,8.7-8.7C137.2,37.5,140.6,41.8,140.1,47.2 M127.6,44.1h7.9c-0.5-1.8-1.8-3-3.9-3C129.5,41,128.2,42.3,127.6,44.1"/>
	<path d="M153.5,37.5V42c-0.3,0-0.6-0.1-1.1-0.1c-2.7,0-5.1,1.2-5.1,5.1v7.4h-4.3V37.8h4.3v2.9c1-2.2,2.8-3.3,5.2-3.3
		C153,37.5,153.3,37.5,153.5,37.5"/>
	<path d="M93.6,46.1c0,5-3.8,8.7-8.7,8.7c-4.8,0-8.6-3.7-8.6-8.7c0-5,3.9-8.7,8.6-8.7C89.8,37.5,93.6,41.1,93.6,46.1 M80.7,46.1
		c0,2.7,1.9,4.6,4.3,4.6s4.3-1.8,4.3-4.6c0-2.7-1.9-4.6-4.3-4.6S80.7,43.4,80.7,46.1"/>
	<rect x="79.5" y="31.4" width="11.1" height="3.9"/>
	<path class="st0" d="M33.2,22.8h-4.6c0-3.5-2.8-6.3-6.3-6.3v-4.6C28.3,11.9,33.2,16.8,33.2,22.8"/>
	<rect x="19.6" y="25.5" class="st0" width="5.3" height="28.9"/>
</g>
</svg>
