<svg id="Ebene_1" data-name="Ebene 1" xmlns="http://www.w3.org/2000/svg" viewBox="0 0 170.08 56.69"><defs><style>.cls-1{fill:#fff;}</style></defs><title>05_logo_weiss</title><path class="cls-1" d="M22.25,3.23A19.6,19.6,0,0,0,16,41.4V36.06a14.65,14.65,0,1,1,12.55,0V41.4A19.6,19.6,0,0,0,22.25,3.23Z"/><path class="cls-1" d="M116.09,37.77v.06h5.52V41.9h-5.52V54.42h-4.32V41.9h-3V37.83h3v-.27c0-4.74,3.32-6.73,6.76-6.73a10.18,10.18,0,0,1,3.92.76l-.78,3.49-.58-.15A7.61,7.61,0,0,0,119,34.6C117.05,34.6,116.09,35.63,116.09,37.77Z"/><path class="cls-1" d="M73.7,4V16.6c0,5.94-3.74,8.9-8.71,8.9s-8.72-3-8.72-8.9V4h4.37V16.36c0,3.68,1.81,5,4.35,5s4.34-1.36,4.34-5V4Z"/><path class="cls-1" d="M88,8.25v4.43a9.48,9.48,0,0,0-1-.06c-2.75,0-5.1,1.21-5.1,5.13v7.39H77.57V8.55h4.31v2.89a5.4,5.4,0,0,1,5.19-3.25A8.18,8.18,0,0,1,88,8.25Z"/><path class="cls-1" d="M108.12,16.84c0,5.1-3.25,8.66-7.57,8.66a6.29,6.29,0,0,1-5.25-2.6v2.24H91V1.91H95.3v9a6.28,6.28,0,0,1,5.25-2.68C104.81,8.19,108.12,11.71,108.12,16.84Zm-4.37,0c0-2.71-1.78-4.55-4.19-4.55a4.25,4.25,0,0,0-4.26,4.55,4.24,4.24,0,0,0,4.26,4.56C101.94,21.4,103.75,19.59,103.75,16.84Z"/><path class="cls-1" d="M127.85,8.55l0,16.59h-4.31V22.9a6.18,6.18,0,0,1-5.19,2.6c-4.34,0-7.57-3.56-7.57-8.66s3.29-8.65,7.54-8.65a6.24,6.24,0,0,1,5.25,2.68V8.55Zm-4.31,8.29a4.25,4.25,0,0,0-4.25-4.55,4.21,4.21,0,0,0-4.2,4.55c0,2.75,1.81,4.56,4.2,4.56A4.24,4.24,0,0,0,123.54,16.84Z"/><path class="cls-1" d="M147.37,14.73V25.14h-4.31V15.67c0-2.18-.82-3.38-3.11-3.38s-3.74,1.42-3.74,4.13v8.72H131.9V8.55h4.31v2.26a6,6,0,0,1,5.16-2.62C145.11,8.19,147.37,10.66,147.37,14.73Z"/><path class="cls-1" d="M167.4,18H154.67a4.11,4.11,0,0,0,4.31,4,3.83,3.83,0,0,0,3.68-2.08h4.47c-1.24,3.92-4.56,5.64-8.11,5.64a8.37,8.37,0,0,1-8.75-8.63,8.39,8.39,0,0,1,8.65-8.68C164.41,8.19,167.82,12.5,167.4,18Zm-12.52-3.17h7.94a3.87,3.87,0,0,0-3.93-3A4,4,0,0,0,154.88,14.79Z"/><path class="cls-1" d="M74.7,43.86A10.45,10.45,0,0,1,63.9,54.42H56.27V33.31H63.9A10.42,10.42,0,0,1,74.7,43.86Zm-4.31,0a6.2,6.2,0,0,0-6.49-6.45H60.58V50.32H63.9A6.21,6.21,0,0,0,70.39,43.86Z"/><path class="cls-1" d="M106.77,37.53V42a9.48,9.48,0,0,0-1-.06c-2.75,0-5.1,1.21-5.1,5.13v7.39H96.3V37.83h4.32v2.9a5.37,5.37,0,0,1,5.19-3.26A8.18,8.18,0,0,1,106.77,37.53Z"/><path class="cls-1" d="M140.14,47.24H127.42a4.11,4.11,0,0,0,4.31,4,3.83,3.83,0,0,0,3.68-2.08h4.46c-1.23,3.92-4.55,5.64-8.11,5.64A8.37,8.37,0,0,1,123,46.15a8.39,8.39,0,0,1,8.66-8.68C137.16,37.47,140.57,41.78,140.14,47.24Zm-12.51-3.17h7.93a3.85,3.85,0,0,0-3.92-3A4,4,0,0,0,127.63,44.07Z"/><path class="cls-1" d="M153.54,37.53V42a9.68,9.68,0,0,0-1.06-.06c-2.74,0-5.09,1.21-5.09,5.13v7.39h-4.32V37.83h4.32v2.9a5.37,5.37,0,0,1,5.18-3.26A8.37,8.37,0,0,1,153.54,37.53Z"/><path class="cls-1" d="M93.63,46.12A8.64,8.64,0,1,1,85,37.47,8.47,8.47,0,0,1,93.63,46.12Zm-12.94,0a4.29,4.29,0,1,0,8.57,0,4.29,4.29,0,1,0-8.57,0Z"/><rect class="cls-1" x="79.45" y="31.37" width="11.07" height="3.92"/><path class="cls-1" d="M33.15,22.83H28.52a6.27,6.27,0,0,0-6.27-6.27V11.93A10.91,10.91,0,0,1,33.15,22.83Z"/><rect class="cls-1" x="19.6" y="25.5" width="5.29" height="28.92"/></svg>